# xmcd CD database file
#
# Track frame offsets:
#	150
#	23588
#	40281
#	62831
#	77435
#	95774
#	115882
#	132149
#	158892
#	176788
#	199937
#
# Disc length: 3078 seconds
#
# Revision: 0
# Processed by: cddbd v1.5.2PL0 Copyright (c) Steve Scherf et al.
# Submitted via: CDex 2.21
#
DISCID=8f0c040b
DTITLE=Sara Gazarek - Yours
DYEAR=2005
DGENRE=Jazz
TTITLE0=Amazing
TTITLE1=Ev'ry Time We Say Goodbye
TTITLE2=Too Young To Go Steady
TTITLE3=My Shining Hour
TTITLE4=Yours
TTITLE5=You Got By
TTITLE6=You Are My Sunshine
TTITLE7=Blackbird,Bye Bye Blackbird
TTITLE8=Cheek to Cheek
TTITLE9=The Circle Game
TTITLE10=All Or Nothing At All
EXTD=YEAR: 2005
EXTT0=
EXTT1=
EXTT2=
EXTT3=
EXTT4=
EXTT5=
EXTT6=
EXTT7=
EXTT8=
EXTT9=
EXTT10=
PLAYORDER=
